<?xml version="1.0" encoding="utf-8"?>
<!-- Generator: Adobe Illustrator 20.0.0, SVG Export Plug-In . SVG Version: 6.00 Build 0)  -->
<svg version="1.1" id="Layer_1" xmlns="http://www.w3.org/2000/svg" xmlns:xlink="http://www.w3.org/1999/xlink" x="0px" y="0px"
	 viewBox="0 0 172 138" style="enable-background:new 0 0 172 138;" xml:space="preserve">
<style type="text/css">
	.st0{fill:#FFFFFF;}
</style>
<g>
	<path class="st0" d="M149.8,67.9c0-3.2-0.2-6.3-1.1-9.2c-0.1-0.4-0.2-0.7-0.4-1.1c0-0.1,0-0.1-0.1-0.2l0,0c0,0,0-0.1-0.1-0.1
		c-0.7-1.7-1.8-3.2-3-4.5c-1.3-1.3-2.8-2.3-4.5-3s-3.6-1.1-5.5-1.1s-3.8,0.4-5.5,1.1c-1.7,0.7-3.2,1.7-4.5,3s-2.3,2.8-3,4.5
		s-1.1,3.6-1.1,5.5s0.4,3.8,1.1,5.5s1.8,3.2,3,4.5c1.3,1.3,2.8,2.3,4.5,3s3.5,1.1,5.5,1.1c1.9,0,3.8-0.4,5.5-1.1
		c0.7-0.3,1.4-0.7,2-1.1c-0.1,0.5-0.3,1-0.5,1.4c-0.5,1.1-1.2,2-2.1,2.8c-0.9,0.8-1.9,1.4-3.1,1.9c-1.2,0.4-2.4,0.7-3.8,0.7h-0.9
		l0,0h-5.5v6.4h5.5h0.1h0.8c2.2,0,4.3-0.4,6.2-1.2c1.9-0.8,3.6-1.8,5.1-3.2c1.5-1.3,2.6-3,3.5-4.8c0.1-0.2,0.2-0.5,0.3-0.8l0,0
		C149,75.8,149.8,72.7,149.8,67.9z M140.9,68.6c-0.7,0.7-1.6,1.3-2.6,1.8c-1,0.4-2,0.6-3.2,0.6c-1.1,0-2.2-0.2-3.2-0.6
		s-1.9-1-2.6-1.8c-0.7-0.7-1.3-1.6-1.7-2.6c-0.4-1-0.6-2.1-0.6-3.2c0-1.1,0.2-2.2,0.6-3.2s1-1.9,1.7-2.6c0.7-0.7,1.6-1.3,2.6-1.7
		s2.1-0.6,3.2-0.6c1.1,0,2.2,0.2,3.2,0.6c1,0.4,1.9,1,2.6,1.7c0.7,0.7,1.3,1.6,1.7,2.6s0.6,2.1,0.6,3.2c0,1.1-0.2,2.2-0.6,3.2
		C142.2,67,141.6,67.9,140.9,68.6z"/>
	<path class="st0" d="M78.3,88c-1.3,0-2.3-0.5-3.2-1.4c-0.9-0.9-1.3-2-1.3-3.2c0-1.3,0.4-2.3,1.3-3.2c0.9-0.9,1.9-1.4,3.2-1.4
		c1.3,0,2.4,0.5,3.2,1.4c0.8,0.9,1.2,2,1.2,3.2s-0.4,2.3-1.2,3.2C80.7,87.5,79.6,88,78.3,88z M86.4,88c-1.3,0-2.3-0.5-3.2-1.4
		c-0.9-0.9-1.3-2-1.3-3.2c0-1.3,0.4-2.3,1.3-3.2c0.9-0.9,1.9-1.4,3.2-1.4c1.3,0,2.3,0.5,3.2,1.4c0.8,0.9,1.3,2,1.3,3.2
		s-0.4,2.3-1.3,3.2C88.7,87.5,87.7,88,86.4,88z"/>
	<path class="st0" d="M106.6,87.9c-0.6,0-1.2-0.1-1.8-0.4c-0.6-0.2-1-0.6-1.4-1s-0.7-0.9-1-1.4c-0.3-0.6-0.4-1.2-0.4-1.8
		c0-0.6,0.1-1.2,0.4-1.8c0.2-0.6,0.6-1,1-1.4s0.9-0.7,1.4-1c0.6-0.2,1.2-0.4,1.8-0.4c0.6,0,1.2,0.1,1.8,0.4c0.6,0.2,1,0.6,1.4,1
		s0.7,0.9,1,1.4c0.2,0.6,0.3,1.2,0.3,1.8c0,0.6-0.1,1.2-0.3,1.8c-0.2,0.6-0.6,1-1,1.4s-0.9,0.7-1.4,1
		C107.8,87.8,107.2,87.9,106.6,87.9z"/>
	<path class="st0" d="M117.9,58.4c-0.7-1.6-1.6-3-2.8-4.1c-1.2-1.2-2.6-2.1-4.1-2.8c-1.6-0.7-3.3-1-5.1-1c-1.8,0-3.5,0.3-5,1
		s-2.9,1.6-4.1,2.8s-2.1,2.6-2.8,4.1c-0.2,0.4-0.3,0.7-0.4,1.1h6.2c0.3-0.4,0.6-0.9,1-1.2c0.7-0.7,1.5-1.2,2.4-1.6
		c0.9-0.4,1.9-0.6,2.9-0.6s2,0.2,2.9,0.6c0.9,0.4,1.7,0.9,2.4,1.6c0.7,0.7,1.2,1.5,1.6,2.4s0.6,1.9,0.6,2.9v3H85.5v-16h-6.4v16h-11
		v-16h-6.4v22.3c0,1.2-0.2,2.3-0.7,3.3c-0.5,1.1-1.2,2-2.1,2.8c-0.9,0.8-1.9,1.4-3.1,1.9c-0.9,0.3-1.9,0.6-2.9,0.6v6.4
		c1.9-0.1,3.7-0.5,5.3-1.2c1.9-0.8,3.6-1.8,5.1-3.2c1.5-1.3,2.6-3,3.5-4.8c0.8-1.7,1.2-5.3,1.3-5.9h50.8v-4.3v-2.1c0-1,0-2.1,0-3
		C118.9,61.7,118.5,60,117.9,58.4z"/>
	<g>
		<path class="st0" d="M30.9,98.2h1.3V99H30v-7.2c-0.1,0-0.3,0-0.5-0.1c-0.2,0-0.3,0-0.5,0v-0.6c0.3,0,0.6-0.1,0.9-0.1s0.7,0,1,0
			V98.2z"/>
		<path class="st0" d="M32,98.2h3.1V99H32V98.2z"/>
		<path class="st0" d="M34.9,98.2H38V99h-3.1V98.2z"/>
		<path class="st0" d="M37.8,98.2h3.1V99h-3.1V98.2z"/>
		<path class="st0" d="M41.7,90.4c-0.4,0-0.6-0.2-0.7-0.6l-0.2-0.6c0.1,0,0.2-0.1,0.3-0.1s0.2-0.1,0.3-0.1l0.1,0.6
			c0,0.1,0.1,0.1,0.1,0.2c0.1,0,0.1,0.1,0.2,0.1c0.1,0,0.2,0,0.2-0.1c0.1-0.1,0.1-0.1,0.1-0.2s0-0.2,0-0.2c0-0.1-0.1-0.2-0.1-0.4
			c0.1,0,0.2-0.1,0.3-0.1s0.2-0.1,0.3-0.1l0.2,0.6c0.1,0.2,0.2,0.3,0.3,0.3c0.2,0,0.3-0.1,0.3-0.4c0-0.1,0-0.1,0-0.2s0-0.2-0.1-0.2
			c0-0.1-0.1-0.2-0.1-0.3c0.1,0,0.1,0,0.2-0.1c0.1,0,0.1,0,0.2-0.1c0.1,0,0.1,0,0.2,0c0,0.1,0.1,0.2,0.1,0.3c0,0.1,0.1,0.2,0.1,0.3
			c0,0.1,0,0.2,0,0.3c0,0.3-0.1,0.5-0.3,0.7s-0.4,0.3-0.8,0.3c-0.1,0-0.2,0-0.2,0c-0.1,0-0.1-0.1-0.2-0.1c-0.1,0-0.1-0.1-0.1-0.1
			s0,0.1-0.1,0.1c0,0.1-0.1,0.1-0.1,0.2s-0.1,0.1-0.2,0.1C42,90.3,41.8,90.4,41.7,90.4z"/>
		<path class="st0" d="M40.6,98.2h1.6V94h1v4.2h1.3V99h-3.8L40.6,98.2L40.6,98.2z M42.7,93.1c-0.2,0-0.3-0.1-0.5-0.2
			S42,92.6,42,92.4s0.1-0.3,0.2-0.5c0.1-0.1,0.3-0.2,0.5-0.2s0.3,0.1,0.4,0.2c0.1,0.1,0.2,0.3,0.2,0.5s-0.1,0.3-0.2,0.5
			C43,93,42.8,93.1,42.7,93.1z"/>
		<path class="st0" d="M44.2,98.2h3.1V99h-3.1V98.2z"/>
		<path class="st0" d="M47.1,98.2h1.7c-0.2-0.2-0.3-0.5-0.5-0.8c-0.1-0.3-0.2-0.6-0.2-1c0-0.3,0.1-0.7,0.2-1
			c0.1-0.3,0.3-0.6,0.5-0.8c0.2-0.2,0.5-0.4,0.8-0.6c0.3-0.1,0.7-0.2,1.2-0.2c0.2,0,0.4,0,0.6,0c0.2,0,0.4,0.1,0.6,0.1l0,1
			c-0.1-0.1-0.3-0.1-0.5-0.2c-0.2,0-0.4-0.1-0.6-0.1c-0.6,0-1,0.2-1.2,0.5c-0.3,0.3-0.4,0.7-0.4,1.2c0,0.6,0.2,1,0.6,1.4
			c0.4,0.3,0.9,0.5,1.6,0.5h1.2V99h-5.5L47.1,98.2L47.1,98.2z"/>
		<path class="st0" d="M64.4,101.7c-0.5,0-0.9-0.1-1.3-0.3c-0.3-0.2-0.6-0.4-0.8-0.7s-0.4-0.7-0.5-1.1s-0.1-0.8-0.1-1.3
			c0-0.1,0-0.3,0-0.5s0-0.3,0.1-0.5s0.1-0.4,0.1-0.5c0-0.2,0.1-0.3,0.1-0.5l1.1-0.2c-0.1,0.4-0.2,0.8-0.3,1.1
			c-0.1,0.3-0.1,0.7-0.1,1c0,0.5,0,0.9,0.1,1.2c0.1,0.3,0.2,0.6,0.4,0.8c0.2,0.2,0.3,0.3,0.5,0.4s0.4,0.1,0.7,0.1s0.6-0.1,0.8-0.2
			c0.2-0.1,0.4-0.3,0.5-0.6c0.1-0.2,0.2-0.5,0.3-0.9c0.1-0.3,0.1-0.7,0.1-1.2V94h1v4v0.2h1.3V99h-1.3c-0.1,0.9-0.4,1.6-0.8,2
			C65.9,101.5,65.2,101.7,64.4,101.7z M64.6,95.1c-0.2,0-0.3-0.1-0.5-0.2c-0.1-0.1-0.2-0.3-0.2-0.5s0.1-0.3,0.2-0.5
			c0.1-0.1,0.3-0.2,0.5-0.2s0.3,0.1,0.4,0.2s0.2,0.3,0.2,0.5s-0.1,0.3-0.2,0.5S64.8,95.1,64.6,95.1z"/>
		<path class="st0" d="M68.3,98.2h0.4c0.1,0,0.3,0,0.4-0.1c0.1,0,0.2-0.1,0.4-0.2c0.1-0.1,0.2-0.3,0.2-0.5c0.1-0.2,0.1-0.4,0.1-0.7
			c0-0.5,0.1-0.9,0.2-1.3s0.3-0.6,0.5-0.9c0.2-0.2,0.5-0.4,0.8-0.5s0.6-0.2,1-0.2c0.3,0,0.6,0,0.9,0.1s0.5,0.3,0.7,0.5
			s0.3,0.5,0.4,0.8s0.1,0.7,0.1,1.2V99h-2c-0.6,0-1.1-0.1-1.4-0.3c-0.3-0.2-0.6-0.4-0.8-0.8c-0.1,0.3-0.3,0.6-0.5,0.8
			c-0.3,0.2-0.6,0.3-1.1,0.3h-0.2L68.3,98.2L68.3,98.2z M73.3,98.2v-2c0-0.2,0-0.4-0.1-0.6s-0.1-0.4-0.2-0.5s-0.2-0.3-0.4-0.3
			s-0.3-0.1-0.5-0.1s-0.4,0-0.6,0.1s-0.3,0.2-0.4,0.4c-0.1,0.2-0.2,0.3-0.2,0.5s-0.1,0.4-0.1,0.7c0,0.6,0.1,1.1,0.4,1.4
			s0.7,0.4,1.3,0.4H73.3z"/>
	</g>
	<path class="st0" d="M52.9,67.9c0-3.2-0.2-6.3-1.1-9.2c-0.1-0.4-0.2-0.7-0.4-1.1c0-0.1,0-0.1-0.1-0.2l0,0c0,0,0-0.1-0.1-0.1
		c-0.7-1.7-1.8-3.2-3-4.5c-1.3-1.3-2.8-2.3-4.5-3s-3.6-1.1-5.5-1.1s-3.8,0.4-5.5,1.1c-1.7,0.7-3.2,1.7-4.5,3s-2.3,2.8-3,4.5
		s-1.1,3.6-1.1,5.5s0.4,3.8,1.1,5.5s1.8,3.2,3,4.5c1.3,1.3,2.8,2.3,4.5,3s3.5,1.1,5.5,1.1c1.9,0,3.8-0.4,5.5-1.1
		c0.7-0.3,1.4-0.7,2-1.1c-0.1,0.5-0.3,1-0.5,1.4c-0.5,1.1-1.2,2-2.1,2.8c-0.9,0.8-1.9,1.4-3.1,1.9c-1.2,0.4-2.4,0.7-3.8,0.7h-0.9
		l0,0H30v6.4h5.5h0.1h0.8c2.2,0,4.3-0.4,6.2-1.2c1.9-0.8,3.6-1.8,5.1-3.2c1.5-1.3,2.6-3,3.5-4.8c0.1-0.2,0.2-0.5,0.3-0.8l0,0
		C52.1,75.8,52.9,72.7,52.9,67.9z M44,68.6c-0.7,0.7-1.6,1.3-2.6,1.8c-1,0.4-2,0.6-3.2,0.6c-1.1,0-2.2-0.2-3.2-0.6s-1.9-1-2.6-1.8
		c-0.7-0.7-1.3-1.6-1.7-2.6c-0.5-1-0.7-2-0.7-3.2c0-1.1,0.2-2.2,0.6-3.2s1-1.9,1.7-2.6c0.7-0.7,1.6-1.3,2.6-1.7s2.1-0.6,3.2-0.6
		c1.1,0,2.2,0.2,3.2,0.6c1,0.4,1.9,1,2.6,1.7c0.7,0.7,1.3,1.6,1.7,2.6s0.6,2.1,0.6,3.2c0,1.1-0.2,2.2-0.6,3.2
		C45.3,67,44.7,67.9,44,68.6z"/>
	<g>
		<rect x="151.9" y="48.7" class="st0" width="6.4" height="32.8"/>
		<path class="st0" d="M159,40.6c0.4-0.2,0.9-0.3,1.4-0.3v-4c-1,0-2,0.2-2.9,0.6c-1,0.4-1.8,1-2.6,1.7c-0.7,0.7-1.3,1.6-1.7,2.6
			c-0.2,0.4-0.3,0.7-0.4,1.1h-0.5h-2.5v4.3h10.6v-4.3H157c0.2-0.3,0.4-0.6,0.7-0.9C158,41.1,158.5,40.8,159,40.6z"/>
	</g>
	<g>
		<path class="st0" d="M27.9,44.4c0-1.1-0.2-2.2-0.6-3.2s-1-1.8-1.7-2.6c-0.7-0.7-1.6-1.3-2.6-1.7s-2.1-0.6-3.2-0.6
			s-2.2,0.2-3.2,0.6c-1,0.4-1.8,1-2.6,1.7c-0.7,0.7-1.3,1.6-1.7,2.6s-0.6,2.1-0.6,3.2c0,1.1,0.2,2.2,0.6,3.2c0.4,1,1,1.9,1.8,2.6
			c0.7,0.7,1.6,1.3,2.6,1.7s2,0.6,3.2,0.6c1.1,0,2.2-0.2,3.2-0.6c1-0.4,1.8-1,2.6-1.7c0.7-0.7,1.3-1.6,1.8-2.6
			C27.7,46.6,27.9,45.5,27.9,44.4z M23.8,45.9c-0.2,0.5-0.5,1-0.9,1.4s-0.8,0.7-1.4,0.9c-0.5,0.2-1.1,0.3-1.6,0.3
			c-0.6,0-1.1-0.1-1.6-0.3s-1-0.5-1.4-0.9s-0.7-0.9-0.9-1.4c-0.2-0.5-0.3-1.1-0.3-1.7c0-0.6,0.1-1.2,0.3-1.7c0.2-0.5,0.5-1,0.9-1.4
			s0.9-0.7,1.4-1c1-0.5,2.3-0.5,3.3,0c0.5,0.2,1,0.6,1.4,1s0.7,0.9,0.9,1.4c0.2,0.5,0.3,1.1,0.3,1.7C24.1,44.8,24,45.4,23.8,45.9z"
			/>
	</g>
</g>
</svg>
