<?xml version="1.0" encoding="utf-8"?>
<!-- Generator: Adobe Illustrator 20.0.0, SVG Export Plug-In . SVG Version: 6.00 Build 0)  -->
<svg version="1.1" id="Layer_1" xmlns="http://www.w3.org/2000/svg" xmlns:xlink="http://www.w3.org/1999/xlink" x="0px" y="0px"
	 viewBox="0 0 172 138" style="enable-background:new 0 0 172 138;" xml:space="preserve">
<style type="text/css">
	.st0{fill:#FFFFFF;}
</style>
<g>
	<path class="st0" d="M144.1,56.9c-1.3-1.3-2.8-2.3-4.6-3c-1.7-0.8-3.6-1.1-5.6-1.1s-3.8,0.4-5.6,1.1c-1.7,0.7-3.2,1.8-4.5,3
		c-1.3,1.3-2.3,2.8-3.1,4.6c-0.8,1.8-1.1,3.6-1.1,5.6s0.4,3.9,1.1,5.6s1.8,3.3,3.1,4.5c1.3,1.3,2.8,2.3,4.5,3
		c1.7,0.8,3.6,1.1,5.6,1.1s3.9-0.4,5.6-1.1c1.7-0.7,3.3-1.8,4.6-3.1c1.3-1.3,2.3-2.8,3.1-4.5s1.1-3.6,1.1-5.6s-0.4-3.9-1.1-5.6
		C146.5,59.7,145.4,58.2,144.1,56.9z M142.3,67.1c0,1.1-0.2,2.2-0.6,3.2c-0.4,1-1,1.9-1.8,2.6s-1.7,1.3-2.7,1.8
		c-1,0.4-2.1,0.7-3.2,0.7c-1.1,0-2.2-0.2-3.2-0.7c-1-0.4-1.9-1-2.7-1.8c-0.7-0.7-1.3-1.6-1.8-2.6c-0.4-1-0.6-2.1-0.6-3.2
		s0.2-2.2,0.6-3.2c0.4-1,1-1.9,1.8-2.6c0.8-0.8,1.6-1.3,2.6-1.8c1-0.4,2.1-0.6,3.2-0.6c1.1,0,2.2,0.2,3.2,0.6c1,0.4,1.9,1,2.6,1.8
		c0.8,0.8,1.3,1.6,1.8,2.6C142.1,64.8,142.3,65.9,142.3,67.1z"/>
	<g>
		<path class="st0" d="M144.9,51.7c0.4,1,1,1.9,1.8,2.6c0.7,0.7,1.6,1.3,2.6,1.7s2.1,0.7,3.2,0.7c1.1,0,2.2-0.2,3.2-0.7
			c1-0.4,1.9-1,2.6-1.7c0.7-0.7,1.3-1.6,1.8-2.6c0.4-1,0.7-2.1,0.7-3.2c0-1.1-0.2-2.2-0.7-3.2c-0.4-1-1-1.9-1.8-2.6
			c-0.7-0.7-1.6-1.3-2.6-1.7s-2.1-0.7-3.2-0.7c-1.1,0-2.2,0.2-3.2,0.7c-1,0.4-1.9,1-2.6,1.7c-0.7,0.7-1.3,1.6-1.8,2.6
			c-0.4,1-0.7,2.1-0.7,3.2C144.3,49.6,144.5,50.7,144.9,51.7z M148.4,48.5c0-0.6,0.1-1.1,0.3-1.6s0.5-0.9,0.9-1.3
			c0.4-0.4,0.8-0.7,1.4-0.9c1-0.4,2.2-0.4,3.2,0c0.5,0.2,1,0.5,1.4,0.9s0.7,0.8,0.9,1.3s0.3,1.1,0.3,1.6s-0.1,1.1-0.3,1.6
			s-0.5,1-0.9,1.3c-0.4,0.4-0.8,0.7-1.3,0.9s-1.1,0.3-1.6,0.3s-1.1-0.1-1.6-0.3s-1-0.5-1.3-0.9c-0.4-0.4-0.7-0.8-0.9-1.3
			C148.5,49.6,148.4,49.1,148.4,48.5z"/>
	</g>
	<path class="st0" d="M35.7,56.9c-1.3-1.3-2.8-2.3-4.6-3c-1.7-0.8-3.6-1.1-5.6-1.1s-3.8,0.4-5.6,1.1c-1.7,0.7-3.2,1.8-4.5,3
		c-1.3,1.3-2.3,2.8-3.1,4.6s-1.1,3.6-1.1,5.6s0.4,3.9,1.1,5.6c0.7,1.7,1.8,3.3,3.1,4.5c1.3,1.3,2.8,2.3,4.5,3
		c1.7,0.8,3.6,1.1,5.6,1.1s3.9-0.4,5.6-1.1c1.7-0.7,3.3-1.8,4.6-3.1c1.3-1.3,2.3-2.8,3.1-4.5s1.1-3.6,1.1-5.6s-0.4-3.9-1.1-5.6
		C38,59.7,37,58.2,35.7,56.9z M33.8,67.1c0,1.1-0.2,2.2-0.6,3.2c-0.4,1-1,1.9-1.8,2.6s-1.7,1.3-2.7,1.8c-1,0.4-2.1,0.7-3.2,0.7
		s-2.2-0.2-3.2-0.7c-1-0.4-1.9-1-2.7-1.8c-0.7-0.7-1.3-1.6-1.8-2.6c-0.4-1-0.6-2.1-0.6-3.2s0.2-2.2,0.6-3.2c0.4-1,1-1.9,1.8-2.6
		c0.8-0.8,1.6-1.3,2.6-1.8c1-0.4,2.1-0.6,3.2-0.6s2.2,0.2,3.2,0.6c1,0.4,1.9,1,2.6,1.8c0.8,0.8,1.3,1.6,1.8,2.6
		C33.6,64.8,33.8,65.9,33.8,67.1z"/>
	<path class="st0" d="M66.5,56.9c-1.3-1.3-2.8-2.3-4.6-3.1c-1.7-0.8-3.6-1.1-5.6-1.1s-3.8,0.4-5.6,1.1c-1.7,0.7-3.2,1.8-4.5,3
		c-1.3,1.3-2.3,2.8-3.1,4.6S42,65,42,67s0.4,3.8,1.1,5.6c0.7,1.7,1.8,3.2,3.1,4.5s2.8,2.3,4.5,3.1c1.7,0.8,3.6,1.1,5.6,1.1
		c0.7,0,1.4,0.1,2,0.4s1.2,0.6,1.6,1.1c0.5,0.5,0.9,1,1.1,1.6c0.3,0.6,0.4,1.3,0.4,2s-0.1,1.3-0.5,1.9c-0.3,0.6-0.8,1.2-1.3,1.7
		s-1.2,0.9-1.9,1.1c-0.8,0.3-1.6,0.4-2.4,0.4h-0.8v6h0.8c1.7,0,3.2-0.3,4.7-0.9c1.4-0.6,2.7-1.4,3.8-2.4c1.1-1,2-2.2,2.6-3.6
		s1-2.8,1-4.4S67,83,66.3,81.5c-0.5-1.1-1.2-2.1-2-3c1.8-1.2,3.2-2.7,4.3-4.6c1.3-2.2,1.9-4.6,1.9-7.2c0-2-0.4-3.9-1.1-5.6
		C68.8,59.7,67.8,58.2,66.5,56.9z M64.6,67.1c0,1.1-0.2,2.2-0.6,3.2s-1,1.9-1.7,2.6s-1.6,1.3-2.6,1.8c-1,0.4-2.1,0.7-3.3,0.7
		c-1.1,0-2.2-0.2-3.2-0.7c-1-0.4-1.9-1-2.6-1.8c-0.7-0.7-1.3-1.6-1.8-2.6c-0.4-1-0.7-2.1-0.7-3.2s0.2-2.2,0.7-3.2
		c0.4-1,1-1.9,1.8-2.7c0.7-0.7,1.6-1.3,2.6-1.8c1-0.4,2.1-0.6,3.2-0.6c1.2,0,2.3,0.2,3.3,0.6c1,0.4,1.9,1,2.6,1.8
		c0.7,0.8,1.3,1.6,1.8,2.7C64.4,64.8,64.6,65.9,64.6,67.1z"/>
	<path class="st0" d="M119.7,58.7v-6.1h-0.8c-2.1,0-4.1,0.4-5.9,1.1c-1.8,0.7-3.5,1.8-4.8,3c-1.4,1.3-2.5,2.8-3.3,4.6
		s-1.2,3.7-1.2,5.6v14.4h6.1V67c0-1.1,0.2-2.2,0.7-3.2c0.5-1,1.1-1.9,2-2.7c0.8-0.8,1.8-1.4,2.9-1.8c1.1-0.4,2.3-0.6,3.6-0.6H119.7z
		"/>
	<g>
		<g>
			<path class="st0" d="M73.5,86.2h-0.7v-0.9h0.7V86.2z M73.5,93.9h-0.7v-6h0.7V93.9z"/>
			<path class="st0" d="M76.5,86.4v1.5h1.3v0.5h-1.3v3.9c0,0.4,0.1,0.7,0.2,0.8c0.1,0.2,0.3,0.2,0.6,0.2c0.1,0,0.2,0,0.2,0
				c0.1,0,0.2,0,0.3,0l0.1,0.5c-0.1,0-0.2,0.1-0.3,0.1c-0.1,0-0.3,0-0.4,0c-0.4,0-0.7-0.1-1-0.4c-0.2-0.3-0.4-0.7-0.4-1.3v-3.9h-1
				v-0.5h1v-1.5h0.7V86.4z"/>
			<path class="st0" d="M85.6,93.9c0-0.2-0.1-0.4-0.1-0.5s0-0.3,0-0.5c-0.2,0.3-0.5,0.6-0.9,0.8c-0.4,0.2-0.8,0.3-1.3,0.3
				c-0.6,0-1-0.2-1.4-0.5c-0.3-0.3-0.5-0.7-0.5-1.3c0-0.5,0.2-1,0.7-1.3s1.1-0.5,1.8-0.5h1.5v-0.7c0-0.4-0.1-0.8-0.4-1
				s-0.7-0.4-1.1-0.4c-0.5,0-0.8,0.1-1.1,0.3c-0.3,0.2-0.4,0.5-0.4,0.8h-0.6l0,0c0-0.4,0.2-0.8,0.6-1.2c0.4-0.3,0.9-0.5,1.6-0.5
				s1.2,0.2,1.6,0.5s0.6,0.8,0.6,1.4v2.9c0,0.2,0,0.4,0,0.6s0.1,0.4,0.1,0.6h-0.7V93.9z M83.4,93.4c0.5,0,0.9-0.1,1.3-0.4
				c0.4-0.2,0.6-0.6,0.8-0.9V91H84c-0.5,0-1,0.1-1.3,0.4c-0.4,0.3-0.5,0.6-0.5,0.9s0.1,0.6,0.3,0.8C82.7,93.3,83.1,93.4,83.4,93.4z"
				/>
			<path class="st0" d="M88.8,93.9h-0.7v-8.6h0.7V93.9z"/>
			<path class="st0" d="M91.5,93.9h-0.7v-8.6h0.7V93.9z"/>
			<path class="st0" d="M99.3,92.4c0-0.3-0.1-0.5-0.3-0.7c-0.2-0.2-0.6-0.4-1.2-0.5c-0.7-0.1-1.2-0.3-1.6-0.6
				c-0.3-0.3-0.5-0.6-0.5-1.1s0.2-0.8,0.6-1.2c0.4-0.3,0.9-0.5,1.5-0.5c0.7,0,1.2,0.2,1.6,0.5s0.6,0.8,0.6,1.2l0,0h-0.6
				c0-0.3-0.1-0.6-0.4-0.9c-0.3-0.2-0.7-0.4-1.1-0.4c-0.5,0-0.8,0.1-1.1,0.3c-0.2,0.2-0.4,0.5-0.4,0.7c0,0.3,0.1,0.5,0.3,0.7
				c0.2,0.2,0.6,0.3,1.2,0.5c0.7,0.2,1.2,0.4,1.6,0.6c0.4,0.3,0.5,0.6,0.5,1.1s-0.2,0.9-0.6,1.2c-0.4,0.3-0.9,0.5-1.6,0.5
				s-1.3-0.2-1.7-0.5c-0.4-0.3-0.6-0.8-0.6-1.2l0,0H96c0,0.4,0.2,0.7,0.5,0.9c0.3,0.2,0.7,0.3,1.2,0.3s0.9-0.1,1.1-0.3
				C99.1,92.9,99.3,92.7,99.3,92.4z"/>
			<path class="st0" d="M102.6,86.4v1.5h1.3v0.5h-1.3v3.9c0,0.4,0.1,0.7,0.2,0.8c0.1,0.2,0.3,0.2,0.6,0.2c0.1,0,0.2,0,0.2,0
				c0.1,0,0.2,0,0.3,0l0.1,0.5c-0.1,0-0.2,0.1-0.3,0.1c-0.1,0-0.3,0-0.4,0c-0.4,0-0.7-0.1-1-0.4c-0.2-0.3-0.4-0.7-0.4-1.3v-3.9h-1
				v-0.5h1v-1.5h0.7V86.4z"/>
			<path class="st0" d="M109.1,93.9c0-0.2-0.1-0.4-0.1-0.5s0-0.3,0-0.5c-0.2,0.3-0.5,0.6-0.9,0.8c-0.4,0.2-0.8,0.3-1.3,0.3
				c-0.6,0-1-0.2-1.4-0.5c-0.3-0.3-0.5-0.7-0.5-1.3c0-0.5,0.2-1,0.7-1.3s1.1-0.5,1.8-0.5h1.5v-0.7c0-0.4-0.1-0.8-0.4-1
				s-0.7-0.4-1.1-0.4c-0.5,0-0.8,0.1-1.1,0.3c-0.3,0.2-0.4,0.5-0.4,0.8h-0.6l0,0c0-0.4,0.2-0.8,0.6-1.2c0.4-0.3,0.9-0.5,1.6-0.5
				s1.2,0.2,1.6,0.5s0.6,0.8,0.6,1.4v2.9c0,0.2,0,0.4,0,0.6s0.1,0.4,0.1,0.6h-0.7V93.9z M107,93.4c0.5,0,0.9-0.1,1.3-0.4
				c0.4-0.2,0.6-0.6,0.8-0.9V91h-1.5c-0.5,0-1,0.1-1.3,0.4c-0.4,0.3-0.5,0.6-0.5,0.9s0.1,0.6,0.3,0.8
				C106.3,93.3,106.6,93.4,107,93.4z"/>
			<path class="st0" d="M114.3,88.5h-0.5c-0.4,0-0.8,0.1-1,0.4c-0.3,0.2-0.5,0.6-0.6,1V94h-0.7v-6h0.6l0.1,1l0,0
				c0.2-0.4,0.4-0.7,0.7-0.9c0.3-0.2,0.6-0.3,1-0.3c0.1,0,0.2,0,0.2,0c0.1,0,0.1,0,0.2,0L114.3,88.5z"/>
			<path class="st0" d="M116.7,86.4v1.5h1.3v0.5h-1.3v3.9c0,0.4,0.1,0.7,0.2,0.8c0.1,0.2,0.3,0.2,0.6,0.2c0.1,0,0.2,0,0.2,0
				c0.1,0,0.2,0,0.3,0l0.1,0.5c-0.1,0-0.2,0.1-0.3,0.1c-0.1,0-0.3,0-0.4,0c-0.4,0-0.7-0.1-1-0.4c-0.2-0.3-0.4-0.7-0.4-1.3v-3.9h-1
				v-0.5h1v-1.5h0.7V86.4z"/>
			<path class="st0" d="M123,92.4c0-0.3-0.1-0.5-0.3-0.7c-0.2-0.2-0.6-0.4-1.2-0.5c-0.7-0.1-1.2-0.3-1.6-0.6
				c-0.3-0.3-0.5-0.6-0.5-1.1s0.2-0.8,0.6-1.2c0.4-0.3,0.9-0.5,1.5-0.5c0.7,0,1.2,0.2,1.6,0.5s0.6,0.8,0.6,1.2l0,0H123
				c0-0.3-0.1-0.6-0.4-0.9c-0.3-0.2-0.7-0.4-1.1-0.4c-0.5,0-0.8,0.1-1.1,0.3c-0.2,0.2-0.4,0.5-0.4,0.7c0,0.3,0.1,0.5,0.3,0.7
				c0.2,0.2,0.6,0.3,1.2,0.5c0.7,0.2,1.2,0.4,1.6,0.6c0.4,0.3,0.5,0.6,0.5,1.1s-0.2,0.9-0.6,1.2c-0.4,0.3-0.9,0.5-1.6,0.5
				s-1.3-0.2-1.7-0.5c-0.4-0.3-0.6-0.8-0.6-1.2l0,0h0.6c0,0.4,0.2,0.7,0.5,0.9c0.3,0.2,0.7,0.3,1.2,0.3s0.9-0.1,1.1-0.3
				C122.9,92.9,123,92.7,123,92.4z"/>
			<path class="st0" d="M128.2,88.9c0.2-0.4,0.5-0.6,0.8-0.8c0.3-0.2,0.7-0.3,1.2-0.3c0.6,0,1.1,0.2,1.5,0.6c0.3,0.4,0.5,1,0.5,1.8
				v3.7h-0.7v-3.7c0-0.6-0.1-1.1-0.4-1.4c-0.3-0.3-0.6-0.4-1.1-0.4s-0.8,0.1-1.1,0.3c-0.3,0.2-0.5,0.5-0.7,0.9v4.3h-0.7v-8.6h0.7
				V88.9z"/>
			<path class="st0" d="M136.3,94c-0.8,0-1.4-0.3-1.9-0.8s-0.7-1.2-0.7-2.1v-0.3c0-0.9,0.2-1.6,0.7-2.1c0.5-0.6,1.1-0.8,1.8-0.8
				s1.3,0.2,1.7,0.7s0.6,1.1,0.6,1.9V91h-4.2v0.2c0,0.7,0.2,1.2,0.5,1.7c0.3,0.4,0.8,0.7,1.4,0.7c0.4,0,0.7-0.1,1-0.2
				s0.6-0.3,0.8-0.5l0.3,0.5c-0.2,0.2-0.5,0.4-0.8,0.5C137.1,93.9,136.7,94,136.3,94z M136.2,88.4c-0.5,0-0.9,0.2-1.3,0.5
				c-0.3,0.4-0.5,0.8-0.6,1.4l0,0h3.4v-0.1c0-0.5-0.1-1-0.4-1.3C137.1,88.5,136.7,88.4,136.2,88.4z"/>
			<path class="st0" d="M142.7,88.5h-0.5c-0.4,0-0.8,0.1-1,0.4s-0.5,0.6-0.6,1V94h-0.7v-6h0.6l0.1,1l0,0c0.2-0.4,0.4-0.7,0.7-0.9
				c0.3-0.2,0.6-0.3,1-0.3c0.1,0,0.2,0,0.2,0c0.1,0,0.1,0,0.2,0V88.5z"/>
			<path class="st0" d="M146.1,94c-0.8,0-1.4-0.3-1.9-0.8s-0.7-1.2-0.7-2.1v-0.3c0-0.9,0.2-1.6,0.7-2.1c0.5-0.6,1.1-0.8,1.8-0.8
				s1.3,0.2,1.7,0.7s0.6,1.1,0.6,1.9V91h-4.2v0.2c0,0.7,0.2,1.2,0.5,1.7c0.3,0.4,0.8,0.7,1.4,0.7c0.4,0,0.7-0.1,1-0.2
				s0.6-0.3,0.8-0.5l0.3,0.5c-0.2,0.2-0.5,0.4-0.8,0.5C147,93.9,146.6,94,146.1,94z M146,88.4c-0.5,0-0.9,0.2-1.3,0.5
				c-0.3,0.4-0.5,0.8-0.6,1.4l0,0h3.4v-0.1c0-0.5-0.1-1-0.4-1.3C147,88.5,146.6,88.4,146,88.4z"/>
		</g>
	</g>
	<g>
		<path class="st0" d="M100.3,61.4c-0.6-1.3-1.3-2.6-2.2-3.6c-0.3-0.3-0.5-0.6-0.8-0.9c-1.3-1.3-2.8-2.3-4.5-3.1s-3.6-1.1-5.6-1.1
			l0,0l0,0c-2,0-3.8,0.4-5.6,1.1c-0.3,0.1-0.6,0.3-0.9,0.4c-1.4,0.7-2.6,1.6-3.7,2.6c-1.3,1.3-2.3,2.8-3.1,4.6
			c-0.7,1.8-1.1,3.6-1.1,5.6c0,1,0.1,2,0.3,3l0,0c0.2,0.9,0.5,1.8,0.8,2.6c0.7,1.7,1.8,3.3,3.1,4.5c1.3,1.3,2.8,2.3,4.5,3
			c1.7,0.8,3.6,1.1,5.6,1.1s3.9-0.4,5.6-1.1c1.6-0.7,3-1.6,4.2-2.7l-4.3-4.3c-0.7,0.6-1.5,1.1-2.3,1.5c-1,0.4-2.1,0.7-3.2,0.7
			s-2.2-0.2-3.2-0.7c-1-0.4-1.9-1-2.7-1.8c-0.7-0.7-1.3-1.6-1.8-2.6c0-0.1-0.1-0.1-0.1-0.2h0.1h15.4h6.3h0.1l0.1-0.7
			c0.1-0.7,0.1-1.2,0.1-1.5v-0.2c0-0.2,0-0.4,0-0.6C101.5,65.1,101.1,63.2,100.3,61.4z M79.5,64c0.2-0.5,0.5-1,0.8-1.5
			c0.5-0.8,1.1-1.4,1.8-2c0.7-0.5,1.5-1,2.3-1.3c0.4-0.2,0.9-0.3,1.3-0.3h0.1c0.2,0,0.4-0.1,0.5-0.1c0.2,0,0.3,0,0.5,0
			c0.1,0,0.2,0,0.2,0c0.6,0,1.1,0.1,1.6,0.2l0,0c0.2,0,0.5,0.1,0.7,0.2h0.1c0.2,0.1,0.4,0.1,0.6,0.2c0.1,0,0.1,0,0.2,0.1
			c0.2,0.1,0.4,0.2,0.6,0.3c0,0,0.1,0,0.1,0.1c0.2,0.1,0.4,0.2,0.6,0.4c0.1,0.1,0.1,0.1,0.2,0.2c0.1,0.1,0.2,0.2,0.3,0.3
			c0.2,0.1,0.3,0.3,0.5,0.4l0,0c0.5,0.5,0.9,1,1.3,1.5c0.3,0.5,0.6,1,0.8,1.5H79.5V64z"/>
	</g>
</g>
</svg>
